<?xml version="1.0" encoding="iso-8859-1"?>
<!-- Generator: Adobe Illustrator 19.0.0, SVG Export Plug-In . SVG Version: 6.00 Build 0)  -->
<svg version="1.1" id="Layer_1" xmlns="http://www.w3.org/2000/svg" xmlns:xlink="http://www.w3.org/1999/xlink" x="0px" y="0px"
	 viewBox="0 0 512 512" style="enable-background:new 0 0 512 512;" xml:space="preserve">
<g>
	<path style="fill:#6C747A;" d="M509.717,512h-55.156v-22.062h33.093V125.91c0-12.167-9.895-22.062-22.062-22.062
		c-12.167,0-22.062,9.895-22.062,22.062v341.966c0,24.335-19.79,44.125-44.125,44.125v-22.062c12.167,0,22.062-9.895,22.062-22.062
		V125.91c0-24.335,19.79-44.125,44.125-44.125s44.125,19.79,44.125,44.125V512z"/>
	<rect x="366.345" y="81.785" style="fill:#6C747A;" width="44.125" height="22.062"/>
	<path style="fill:#6C747A;" d="M399.405,512H46.408c-11.781,0-22.868-4.589-31.196-12.928c-8.34-8.34-12.929-19.415-12.929-31.196
		V33.093L35.377,0l22.062,22.062L79.502,0l22.062,22.062L123.626,0l22.062,22.062L167.751,0l22.062,22.062L211.875,0l22.062,22.062
		L256,0l22.062,22.062L300.125,0l22.062,22.062L344.249,0l33.093,33.093v434.782c0,5.891,2.294,11.428,6.464,15.598
		c4.17,4.17,9.707,6.464,15.598,6.464V512z M24.346,42.227v425.648c0,5.891,2.294,11.428,6.464,15.598s9.707,6.464,15.598,6.464
		h314.763c-3.85-6.641-5.891-14.186-5.891-22.062V42.227l-11.031-11.031l-22.062,22.062l-22.062-22.062l-22.062,22.062L256,31.196
		l-22.062,22.062l-22.062-22.062l-22.062,22.062l-22.062-22.062l-22.062,22.062l-22.062-22.062l-22.062,22.062L79.502,31.196
		L57.439,53.258L35.377,31.196L24.346,42.227z"/>
	<rect x="211.908" y="170.034" style="fill:#6C747A;" width="66.187" height="22.062"/>
	<rect x="178.782" y="214.159" style="fill:#6C747A;" width="132.374" height="22.062"/>
	<rect x="178.782" y="258.283" style="fill:#6C747A;" width="132.374" height="22.062"/>
	<rect x="178.782" y="302.408" style="fill:#6C747A;" width="132.374" height="22.062"/>
	<rect x="178.782" y="346.533" style="fill:#6C747A;" width="132.374" height="22.062"/>
	<rect x="68.47" y="390.657" style="fill:#6C747A;" width="88.249" height="22.062"/>
	<rect x="178.782" y="390.657" style="fill:#6C747A;" width="132.374" height="22.062"/>
	<rect x="68.47" y="434.738" style="fill:#6C747A;" width="22.062" height="22.062"/>
	<rect x="112.595" y="434.738" style="fill:#6C747A;" width="22.062" height="22.062"/>
	<rect x="156.72" y="434.738" style="fill:#6C747A;" width="22.062" height="22.062"/>
	<rect x="200.844" y="434.738" style="fill:#6C747A;" width="22.062" height="22.062"/>
	<rect x="245.002" y="434.738" style="fill:#6C747A;" width="22.062" height="22.062"/>
	<rect x="289.127" y="434.738" style="fill:#6C747A;" width="22.062" height="22.062"/>
</g>
<linearGradient id="SVGID_1_" gradientUnits="userSpaceOnUse" x1="-38.3511" y1="629.9853" x2="-16.351" y2="629.9853" gradientTransform="matrix(11.0312 0 0 -11.0312 491.5267 7064.3433)">
	<stop  offset="0" style="stop-color:#73DBE6"/>
	<stop  offset="1" style="stop-color:#CAE6B8"/>
</linearGradient>
<rect x="68.47" y="81.785" style="fill:url(#SVGID_1_);" width="242.685" height="66.187"/>
<g>
	<path style="fill:#6C747A;" d="M112.595,280.346c-24.335,0-44.125-19.79-44.125-44.125s19.79-44.125,44.125-44.125
		s44.125,19.79,44.125,44.125h-22.062c0-12.167-9.895-22.062-22.062-22.062s-22.062,9.895-22.062,22.062
		c0,12.167,9.895,22.062,22.062,22.062V280.346z"/>
	<path style="fill:#6C747A;" d="M112.584,346.533c-24.324,0-44.114-19.79-44.114-44.125h22.062c0,12.167,9.895,22.062,22.051,22.062
		c12.178,0,22.073-9.895,22.073-22.073c0-5.88-2.294-11.417-6.464-15.587c-4.17-4.17-9.696-6.464-15.576-6.464h-0.011l-0.011-22.062
		c0,0,0.011,0,0.022,0c11.77,0,22.846,4.589,31.174,12.917c8.34,8.34,12.929,19.426,12.929,31.196
		C156.72,326.732,136.919,346.533,112.584,346.533z"/>
	<rect x="101.564" y="170.034" style="fill:#6C747A;" width="22.062" height="33.093"/>
	<rect x="101.564" y="335.501" style="fill:#6C747A;" width="22.062" height="33.093"/>
</g>
<g>
</g>
<g>
</g>
<g>
</g>
<g>
</g>
<g>
</g>
<g>
</g>
<g>
</g>
<g>
</g>
<g>
</g>
<g>
</g>
<g>
</g>
<g>
</g>
<g>
</g>
<g>
</g>
<g>
</g>
</svg>
